<?xml version="1.0" encoding="utf-8"?>
<!-- Generator: Adobe Illustrator 19.0.0, SVG Export Plug-In . SVG Version: 6.00 Build 0)  -->
<svg version="1.1" id="Layer_1" xmlns="http://www.w3.org/2000/svg" xmlns:xlink="http://www.w3.org/1999/xlink" x="0px" y="0px"
	 viewBox="0 0 400 192.5" style="enable-background:new 0 0 400 192.5;" xml:space="preserve">
<style type="text/css">
	.st0{fill:#FFFFFF;}
	.st1{fill:url(#XMLID_86_);}
</style>
<g id="XMLID_3_">
	<g id="XMLID_13_">
		<path id="XMLID_60_" class="st0" d="M20.2,159.8c2.1,1.8,3.2,4.3,3.2,7.5c0,3.2-1.1,5.7-3.2,7.5c-2.1,1.8-5,2.7-8.6,2.7H2.6v14.4
			H0v-34.8h11.6C15.2,157.1,18.1,158,20.2,159.8z M18.2,173c1.6-1.3,2.4-3.3,2.4-5.8c0-2.5-0.8-4.4-2.4-5.7c-1.6-1.4-3.9-2-6.9-2
			H2.6V175h8.6C14.3,175,16.6,174.4,18.2,173z"/>
		<path id="XMLID_58_" class="st0" d="M58.3,189.5v2.4H33.6v-34.8h23.8v2.4H36.3V173H53v2.5H36.3v14H58.3z"/>
		<path id="XMLID_33_" class="st0" d="M91.7,191.9l-10-15.1h-0.2H71.2v15.1h-2.6v-34.8h12.9c3.5,0,6.3,0.9,8.3,2.6
			c2.1,1.8,3.1,4.2,3.1,7.2c0,2.5-0.7,4.6-2.2,6.3c-1.5,1.7-3.5,2.8-6.1,3.2l10.1,15.4H91.7z M71.2,174.3h10.2c2.8,0,5-0.6,6.5-1.9
			c1.5-1.3,2.2-3.1,2.2-5.5c0-2.4-0.7-4.2-2.2-5.5c-1.5-1.3-3.7-1.9-6.5-1.9H71.2V174.3z"/>
		<path id="XMLID_31_" class="st0" d="M107.7,159.5V173h16.7v2.5h-16.7v16.5H105v-34.8h23.8v2.4H107.7z"/>
		<path id="XMLID_28_" class="st0" d="M160,158.7c2.4,1.5,4.3,3.5,5.6,6.2c1.3,2.7,2,5.9,2,9.5c0,3.7-0.7,6.8-2,9.5
			c-1.3,2.7-3.2,4.8-5.6,6.2c-2.4,1.5-5.3,2.2-8.5,2.2c-3.3,0-6.1-0.7-8.5-2.2c-2.4-1.5-4.3-3.5-5.6-6.2c-1.3-2.7-2-5.9-2-9.5
			c0-3.7,0.7-6.8,2-9.5c1.3-2.7,3.2-4.8,5.6-6.2c2.4-1.5,5.3-2.2,8.5-2.2C154.7,156.5,157.5,157.3,160,158.7z M144.4,160.9
			c-2,1.2-3.5,3-4.6,5.4c-1.1,2.3-1.6,5.1-1.6,8.3c0,3.2,0.5,5.9,1.6,8.3c1.1,2.3,2.6,4.1,4.6,5.4c2,1.2,4.3,1.9,7,1.9
			c2.7,0,5.1-0.6,7.1-1.9c2-1.2,3.5-3,4.6-5.4c1.1-2.3,1.6-5.1,1.6-8.3c0-3.2-0.5-5.9-1.6-8.3c-1.1-2.3-2.6-4.1-4.6-5.4
			c-2-1.2-4.4-1.9-7.1-1.9C148.7,159,146.4,159.6,144.4,160.9z"/>
		<path id="XMLID_25_" class="st0" d="M202,191.9l-10-15.1h-0.2h-10.3v15.1h-2.6v-34.8h12.9c3.5,0,6.3,0.9,8.3,2.6
			c2.1,1.8,3.1,4.2,3.1,7.2c0,2.5-0.7,4.6-2.2,6.3c-1.5,1.7-3.5,2.8-6.1,3.2l10.1,15.4H202z M181.5,174.3h10.2c2.8,0,5-0.6,6.5-1.9
			c1.5-1.3,2.2-3.1,2.2-5.5c0-2.4-0.7-4.2-2.2-5.5c-1.5-1.3-3.7-1.9-6.5-1.9h-10.2V174.3z"/>
		<path id="XMLID_23_" class="st0" d="M247.7,191.9h-2.5v-26l0.3-6.3h-0.1l-12.7,32.3h-2.4l-12.7-32.3h-0.1l0.3,6.3v26h-2.5v-34.8h4
			l10.5,26.4l1.7,5.3h0.1l1.7-5.3l10.5-26.5h4V191.9z"/>
		<path id="XMLID_20_" class="st0" d="M280.7,181H264l-4.3,10.9h-2.8l13.9-34.8h3.1l13.9,34.8h-2.8L280.7,181z M279.7,178.6
			l-6.1-15.2l-1.3-3.7h-0.1l-1.3,3.6l-6.1,15.3H279.7z"/>
		<path id="XMLID_18_" class="st0" d="M323.8,191.9h-3.3L302,164.6l-2.6-4.6h-0.1l0.2,4.4v27.6H297v-34.8h3.3l18.4,27.3l2.6,4.7
			l-0.1-4.4v-27.6h2.5V191.9z"/>
		<path id="XMLID_16_" class="st0" d="M359.8,190c-2.4,1.6-5.4,2.5-8.8,2.5c-3.2,0-5.9-0.7-8.3-2.2c-2.4-1.5-4.2-3.5-5.5-6.3
			c-1.3-2.7-2-5.9-2-9.5c0-3.6,0.7-6.8,2-9.5c1.3-2.7,3.1-4.8,5.5-6.3c2.4-1.5,5.2-2.2,8.3-2.2c7,0,11.5,2.9,13.5,8.6l-2.6,1.2
			c-0.8-2.5-2.1-4.3-3.9-5.5c-1.8-1.2-4.1-1.8-6.9-1.8c-2.6,0-4.9,0.6-6.9,1.9c-2,1.2-3.5,3-4.6,5.4c-1.1,2.3-1.6,5.1-1.6,8.3
			c0,3.2,0.5,5.9,1.6,8.3c1.1,2.3,2.6,4.1,4.5,5.4c2,1.2,4.2,1.9,6.9,1.9c2.8,0,5.2-0.7,7.2-2.1c2-1.4,3.3-3.3,4.1-5.9l2.6,1
			C364,186.1,362.2,188.4,359.8,190z"/>
		<path id="XMLID_14_" class="st0" d="M400,189.5v2.4h-24.7v-34.8h23.8v2.4H378V173h16.7v2.5H378v14H400z"/>
	</g>
	<linearGradient id="XMLID_86_" gradientUnits="userSpaceOnUse" x1="199.9906" y1="147" x2="199.9906" y2="-8.810275e-009">
		<stop  offset="0" style="stop-color:#CCCCCC"/>
		<stop  offset="1" style="stop-color:#FFFFFF"/>
	</linearGradient>
	<path id="XMLID_67_" class="st1" d="M350.4,70.9L396.2,0h-39.5l-27.9,43.5L300.8,0h-39.3l46,71.4l-29.7,45.4L227.3,0h-31.7L163,74
		V0h-43.6l-38,80.7L43.6,0H0v147h32V54l39.5,81H91l40-81v93h1.2H162v-5c0-1,1.1-2,2.1-2h5.8c0,0,0,0.1,0,0.1l10.7-25.1h61.5
		l10.7,25.1c0,0,0-0.1,0-0.1h5.8c1,0,2.2,1,2.2,2v5h29.8h6.9l31.1-48.3l31.3,48.3H400L350.4,70.9z M193.1,86l18.5-42.6L229.9,86
		H193.1z"/>
</g>
</svg>
