<?xml version="1.0" encoding="utf-8"?>
<!-- Generator: Adobe Illustrator 19.0.0, SVG Export Plug-In . SVG Version: 6.00 Build 0)  -->
<svg version="1.1" id="Layer_1" xmlns="http://www.w3.org/2000/svg" xmlns:xlink="http://www.w3.org/1999/xlink" x="0px" y="0px"
	 viewBox="0 0 235.6 139" style="enable-background:new 0 0 235.6 139;" xml:space="preserve">
<style type="text/css">
	.st0{fill:url(#XMLID_65_);}
</style>
<linearGradient id="XMLID_65_" gradientUnits="userSpaceOnUse" x1="117.8031" y1="139" x2="117.8031" y2="-2.523848e-009">
	<stop  offset="0" style="stop-color:#1A1A1A"/>
	<stop  offset="1" style="stop-color:#A90B1F"/>
</linearGradient>
<path id="XMLID_3_" class="st0" d="M220.9,12C211.1,3.7,195.5,0,174,0h-17.8h-31.6h-10.4L78,76.8L42,0H0v139h31V50.8L68.6,128h18.6
	L125,51.6V139h0h30.8h1.2v-39h17.4c20.7,0,36-4.1,46.1-12.1c10.1-8,15.1-20.4,15.1-37.7C235.6,32.9,230.7,20.3,220.9,12z M198,66.6
	c-3.7,4.2-10.8,6.4-21.2,6.4H157V26h16.6c10.3,0,17.8,1.6,22.7,5c4.9,3.4,7.3,9.1,7.3,17.2C203.6,56.3,201.7,62.4,198,66.6z"/>
</svg>
